:SAMPLES-PER-SECOND 30
:FULLY-SPECIFIED
:DEGREES
1088
root  53.765 37.4596 38.3703 -158.757 -19.6475 179.144
RightUpLeg  -36.7087 -34.8828 20.4526
RightLeg  44.2491 -3.27466 -3.6666
RightFoot  -18.7778 0.156995 4.9059
RightToes  5.82063e-011 0 -3.6325e-017
Spine  65.6431 -2.41926 5.5119
Spine1  11.8984 2.10776 -3.57144
HEad  -47.0467 -2.65109 -7.7856
LeftShoulder1  9.95806 -22.2513 -32.4641
LeftArm  -21.1179 -59.0952 -26.2194
LeftForeArm  92.6036 -56.8657 -10.4658
LeftHand  -0.244104 0.0205437 5.32207
RightShoulder  4.09861 13.6454 17.316
RightArm  -48.1272 55.1294 -3.38969
RightForeArm  33.0404 43.2428 8.29729
RightHand  -25.0246 38.5203 -59.9413
LeftUpLeg  -46.9063 16.7837 -26.693
LeftLeg  21.4969 12.4446 5.68612
LeftFoot  -7.11136 -0.64804 18.1071
LeftToes  1.45487e-011 -6.19069e-011 1.65092e-011
1089
root  54.0064 37.4939 37.4293 -158.831 -20.7278 178.658
RightUpLeg  -41.9918 -35.7485 18.8614
RightLeg  54.9856 -0.720171 -1.52434
RightFoot  -5.70989 -0.385844 7.67636
RightToes  5.82063e-011 0 -3.6325e-017
Spine  66.6816 -1.0943 5.4828
Spine1  8.64694 2.85255 -1.55966
HEad  -45.1338 -4.33344 -8.51321
LeftShoulder1  12.3305 -24.7204 -37.4068
LeftArm  -18.4244 -57.1911 -26.3464
LeftForeArm  92.7329 -56.8311 -10.4465
LeftHand  -0.244104 0.0205437 5.32207
RightShoulder  4.4572 12.2241 22.0454
RightArm  -45.4172 55.1814 -9.87315
RightForeArm  30.3755 43.0131 8.39854
RightHand  -23.9311 37.7169 -58.6507
LeftUpLeg  -45.8188 13.4523 -22.9868
LeftLeg  24.7488 14.0565 7.28193
LeftFoot  -8.72006 -0.2774 14.3828
LeftToes  1.45487e-011 -6.19069e-011 1.65092e-011
1090
root  54.2588 37.445 36.5678 -158.995 -21.8582 177.766
RightUpLeg  -48.1574 -35.1999 16.0329
RightLeg  65.1124 0.0234449 -0.702263
RightFoot  8.23615 -0.959512 6.02726
RightToes  5.82063e-011 0 -3.6325e-017
Spine  67.0297 -0.455038 5.17259
Spine1  6.53472 3.58607 -0.82868
HEad  -43.5638 -5.57558 -8.99131
LeftShoulder1  14.1825 -26.0258 -41.521
LeftArm  -15.9463 -56.3739 -26.9032
LeftForeArm  92.4557 -56.349 -10.2298
LeftHand  -0.244104 0.0205437 5.32207
RightShoulder  4.57144 11.452 24.4015
RightArm  -43.9138 54.7606 -14.6714
RightForeArm  27.8727 42.5192 8.40388
RightHand  -23.5942 37.4291 -58.2858
LeftUpLeg  -45.5449 12.7357 -21.7822
LeftLeg  28.2468 13.4388 8.04519
LeftFoot  -9.72847 -0.0944696 10.9747
LeftToes  1.45487e-011 -6.19069e-011 1.65092e-011
1091
root  54.4907 37.3831 35.7111 -159.512 -22.9324 177.482
RightUpLeg  -53.3457 -33.118 12.9544
RightLeg  72.197 -0.837963 -4.00623
RightFoot  12.9396 -0.24478 1.41369
RightToes  5.82063e-011 0 -3.6325e-017
Spine  67.4569 -0.359697 5.39327
Spine1  5.66508 4.27085 -0.715835
HEad  -42.4144 -6.40557 -9.76257
LeftShoulder1  15.2697 -26.6411 -43.9269
LeftArm  -14.4128 -55.9473 -28.2388
LeftForeArm  92.168 -55.6106 -9.9034
LeftHand  -0.244104 0.0205437 5.32207
RightShoulder  4.34037 11.0135 23.7108
RightArm  -42.7302 54.1503 -15.9962
RightForeArm  26.0096 41.5254 8.2062
RightHand  -23.9193 37.5678 -58.8028
LeftUpLeg  -44.7967 11.9623 -20.2752
LeftLeg  30.9998 13.5466 8.98773
LeftFoot  -11.0856 0.0446732 10.2389
LeftToes  1.45487e-011 -6.19069e-011 1.65092e-011
1092
root  54.7145 37.5109 34.8016 -160.282 -23.9533 177.87
RightUpLeg  -56.7709 -29.9232 9.62207
RightLeg  74.5281 -2.32083 -10.4532
RightFoot  9.78892 0.729128 -3.58812
RightToes  5.82063e-011 0 -3.6325e-017
Spine  68.3684 -0.408186 6.27807
Spine1  4.6547 4.71032 -0.247355
HEad  -41.5787 -6.83316 -10.9196
LeftShoulder1  16.1021 -27.018 -45.852
LeftArm  -13.6528 -55.3181 -29.346
LeftForeArm  91.8194 -54.886 -9.59644
LeftHand  -0.244104 0.0205437 5.32207
RightShoulder  4.03038 10.5852 22.3437
RightArm  -41.4228 54.0036 -16.2415
RightForeArm  25.315 40.3696 7.88986
RightHand  -24.1008 37.6114 -59.1305
LeftUpLeg  -43.172 10.1304 -17.4158
LeftLeg  32.4023 14.6296 10.1467
LeftFoot  -11.9187 0.118561 9.31427
LeftToes  1.45487e-011 -6.19069e-011 1.65092e-011
1093
root  54.9607 37.6605 33.8569 -160.883 -25.0504 178.071
RightUpLeg  -58.1743 -26.7498 5.30555
RightLeg  71.1522 -4.16401 -14.3002
RightFoot  5.22901 0.784353 -5.0454
RightToes  5.82063e-011 0 -3.6325e-017
Spine  68.7727 -1.24502 6.64586
Spine1  4.81429 4.04613 -0.647172
HEad  -42.4608 -5.48913 -11.6189
LeftShoulder1  15.4742 -26.6259 -44.5545
LeftArm  -15.7049 -55.3929 -29.4058
LeftForeArm  91.2576 -54.2586 -9.34586
LeftHand  -0.244104 0.0205437 5.32207
RightShoulder  3.67958 10.522 19.8324
RightArm  -41.8974 55.6333 -15.1815
RightForeArm  26.7154 38.7786 7.32722
RightHand  -23.6957 37.3644 -58.5768
LeftUpLeg  -41.5135 8.36104 -14.8014
LeftLeg  33.4209 15.5115 11.0983
LeftFoot  -12.4543 0.149188 7.60831
LeftToes  1.45487e-011 -6.19069e-011 1.65092e-011
1094
root  55.2449 37.7527 32.8664 -160.964 -26.1963 177.909
RightUpLeg  -58.207 -24.6885 0.87812
RightLeg  62.3503 -5.9542 -12.7922
RightFoot  3.12242 0.371489 -2.77174
RightToes  5.82063e-011 0 -3.6325e-017
Spine  68.0403 -3.25723 6.17474
Spine1  7.51291 2.1995 -2.96192
HEad  -45.6006 -2.07873 -11.8855
LeftShoulder1  12.5895 -24.7566 -38.142
LeftArm  -20.9964 -56.7709 -29.5353
LeftForeArm  90.8277 -53.6985 -9.12653
LeftHand  -0.244104 0.0205437 5.32207
RightShoulder  3.19365 11.3066 14.7796
RightArm  -45.5436 58.5561 -12.3925
RightForeArm  29.2558 36.5512 6.54552
RightHand  -23.3002 37.2131 -57.9222
LeftUpLeg  -40.286 7.43465 -13.057
LeftLeg  34.1992 15.4498 11.3634
LeftFoot  -12.9867 0.172781 6.55142
LeftToes  1.45487e-011 -6.19069e-011 1.65092e-011
1095
root  55.5435 37.8392 31.8016 -160.404 -27.4359 177.593
RightUpLeg  -57.2349 -23.7995 -2.39249
RightLeg  49.1359 -6.85904 -8.81778
RightFoot  1.96455 0.0931752 -0.700605
RightToes  5.82063e-011 0 -3.6325e-017
Spine  66.718 -5.05048 5.73131
Spine1  10.7734 0.567518 -4.91445
HEad  -49.0282 0.977726 -13.2047
LeftShoulder1  9.77074 -22.025 -32.2104
LeftArm  -25.5683 -58.6372 -30.7244
LeftForeArm  90.7414 -53.1144 -8.89622
LeftHand  -0.244104 0.0205437 5.32207
RightShoulder  2.51753 11.8997 8.90216
RightArm  -50.4968 61.0686 -10.4174
RightForeArm  30.9405 34.5359 5.91463
RightHand  -23.51 37.4157 -58.1224
LeftUpLeg  -39.3869 6.6507 -11.586
LeftLeg  34.4388 14.9039 11.0875
LeftFoot  -13.6129 0.196471 5.78872
LeftToes  1.45487e-011 -6.19069e-011 1.65092e-011
1096
root  55.8805 37.8679 30.5812 -159.42 -29.1882 176.859
RightUpLeg  -54.1112 -23.2787 -5.527
RightLeg  33.9361 -6.19493 -4.7452
RightFoot  -0.124085 -0.0496313 0.540315
RightToes  5.82063e-011 0 -3.6325e-017
Spine  65.5274 -5.32652 5.67318
Spine1  12.3793 -0.0149407 -4.12847
HEad  -50.7732 1.89068 -15.4565
LeftShoulder1  9.36684 -21.2502 -31.7207
LeftArm  -27.7803 -59.7766 -30.7494
LeftForeArm  90.3619 -52.2839 -8.58309
LeftHand  -0.244104 0.0205437 5.32207
RightShoulder  1.99872 11.4455 5.62171
RightArm  -53.0194 62.3019 -10.8146
RightForeArm  30.936 33.7364 5.71393
RightHand  -23.9089 37.6306 -58.7061
LeftUpLeg  -38.6489 5.60924 -10.1565
LeftLeg  34.859 14.1462 10.7214
LeftFoot  -14.516 0.206378 4.31442
LeftToes  1.45487e-011 -6.19069e-011 1.65092e-011
1097
root  56.3266 37.754 29.1439 -158.601 -31.6677 175.665
RightUpLeg  -48.5181 -21.8628 -9.99804
RightLeg  21.7194 -4.46543 -2.12207
RightFoot  -1.73758 -0.365961 4.19524
RightToes  5.82063e-011 0 -3.6325e-017
Spine  66.0577 -6.39612 6.14278
Spine1  9.98573 -0.117085 -5.95021
HEad  -49.5685 2.74657 -14.834
LeftShoulder1  9.47252 -21.852 -31.2162
LeftArm  -27.5009 -58.2123 -31.3615
LeftForeArm  89.6508 -51.3647 -8.25849
LeftHand  -0.244104 0.0205437 5.32207
RightShoulder  2.59391 12.0416 9.35314
RightArm  -49.9971 62.2342 -12.1928
RightForeArm  29.4695 34.2958 5.94003
RightHand  -23.8918 37.5477 -58.7693
LeftUpLeg  -37.8987 4.68083 -8.68724
LeftLeg  36.3813 13.1664 10.5736
LeftFoot  -15.61 0.18219 2.37857
LeftToes  1.45487e-011 -6.19069e-011 1.65092e-011
1098
root  56.8697 37.5425 27.6144 -158.513 -34.3589 174.98
RightUpLeg  -43.5209 -20.0912 -13.3905
RightLeg  17.2874 -3.111 -1.24868
RightFoot  -1.24247 -0.926623 10.231
RightToes  5.82063e-011 0 -3.6325e-017
Spine  65.6666 -6.41702 6.29744
Spine1  9.91776 -0.0520715 -5.78085
HEad  -48.6159 3.14561 -14.5946
LeftShoulder1  9.60439 -21.9789 -31.5477
LeftArm  -27.646 -57.8398 -31.2051
LeftForeArm  88.8762 -50.1516 -7.8432
LeftHand  -0.244104 0.0205437 5.32207
RightShoulder  2.76504 12.6436 9.83612
RightArm  -47.688 61.6397 -10.966
RightForeArm  29.0497 34.7834 6.08919
RightHand  -23.8068 37.4787 -58.6739
LeftUpLeg  -37.0097 3.6432 -6.27375
LeftLeg  38.4739 11.7451 10.208
LeftFoot  -16.8198 0.102977 0.103703
LeftToes  1.45487e-011 -6.19069e-011 1.65092e-011
1099
root  57.427 37.332 26.1321 -158.888 -36.8623 175.246
RightUpLeg  -42.0526 -21.8377 -12.0628
RightLeg  19.5686 -1.13116 -0.649356
RightFoot  0.350813 -1.60014 15.6128
RightToes  5.82063e-011 0 -3.6325e-017
Spine  65.5441 -6.66512 6.92639
Spine1  9.42896 0.153986 -6.22082
HEad  -47.7345 3.17794 -14.445
LeftShoulder1  9.34089 -21.6908 -30.9373
LeftArm  -27.9082 -57.2168 -31.2574
LeftForeArm  88.2204 -49.057 -7.48431
LeftHand  -0.244104 0.0205437 5.32207
RightShoulder  2.90972 13.6135 9.68219
RightArm  -45.2247 60.9431 -8.9183
RightForeArm  28.9597 34.8038 6.09985
RightHand  -24.056 37.6682 -58.969
LeftUpLeg  -36.7953 1.50099 -2.58638
LeftLeg  41.1364 10.4274 9.99738
LeftFoot  -17.3521 -0.0525078 -3.11239
LeftToes  1.45487e-011 -6.19069e-011 1.65092e-011
1100
root  57.9422 37.2086 24.7338 -159.353 -39.2399 175.995
RightUpLeg  -43.0584 -26.2832 -8.07816
RightLeg  24.3433 0.539493 0.0454655
RightFoot  -0.0561005 -1.77609 17.8498
RightToes  5.82063e-011 0 -3.6325e-017
Spine  66.1252 -6.72326 7.75473
Spine1  7.42163 0.5052 -6.17788
HEad  -47.2749 2.59745 -14.6799
LeftShoulder1  9.61185 -22.0048 -31.5344
LeftArm  -28.3925 -56.2128 -29.9389
LeftForeArm  87.3069 -48.449 -7.30507
LeftHand  -0.244104 0.0205437 5.32207
RightShoulder  3.10683 14.1515 10.3507
RightArm  -42.9565 60.6185 -8.98646
RightForeArm  28.8447 34.9108 6.13446
RightHand  -23.9201 37.5826 -58.7849
LeftUpLeg  -38.2212 -1.82096 1.52611
LeftLeg  45.4562 10.6231 11.7994
LeftFoot  -14.9021 -0.0743472 -5.30193
LeftToes  1.45487e-011 -6.19069e-011 1.65092e-011
1101
root  58.3982 37.1555 23.4137 -160.441 -41.3397 177.291
RightUpLeg  -44.2098 -29.3613 -4.29939
RightLeg  29.3636 1.59205 0.735802
RightFoot  -3.54829 -1.17328 16.6242
RightToes  5.82063e-011 0 -3.6325e-017
Spine  67.0034 -6.50453 8.49562
Spine1  5.73999 0.793605 -5.50198
HEad  -47.8664 2.24278 -14.2514
LeftShoulder1  10.0828 -22.5691 -32.5248
LeftArm  -29.6116 -55.6463 -27.2721
LeftForeArm  86.3864 -48.5242 -7.35342
LeftHand  -0.244104 0.0205437 5.32207
RightShoulder  3.21131 13.8997 11.3011
RightArm  -42.5642 61.2635 -10.6604
RightForeArm  29.0525 35.3601 6.23931
RightHand  -22.7607 36.7519 -57.3127
LeftUpLeg  -41.1222 -5.24195 5.43663
LeftLeg  51.5917 11.5662 15.6383
LeftFoot  -8.38329 0.0828329 -2.812
LeftToes  1.45487e-011 -6.19069e-011 1.65092e-011
1102
root  58.8132 36.9981 22.0912 -162.228 -43.1083 178.949
RightUpLeg  -44.3383 -30.0394 -1.7101
RightLeg  34.3951 1.81275 1.0638
RightFoot  -7.74739 -0.498432 14.2127
RightToes  5.82063e-011 0 -3.6325e-017
Spine  67.4956 -6.33401 8.89259
Spine1  5.75697 0.922399 -5.47706
HEad  -49.3111 2.47804 -12.7708
LeftShoulder1  9.88143 -22.6058 -31.6895
LeftArm  -31.4856 -55.8112 -24.841
LeftForeArm  86.1297 -49.1342 -7.56329
LeftHand  -0.244104 0.0205437 5.32207
RightShoulder  3.17977 13.4521 11.6342
RightArm  -44.281 62.5193 -11.9301
RightForeArm  29.108 35.5534 6.28689
RightHand  -21.5579 35.8135 -55.8102
LeftUpLeg  -44.4467 -7.82074 8.66231
LeftLeg  57.5151 9.99119 16.7919
LeftFoot  -1.80295 -0.236641 3.15296
LeftToes  1.45487e-011 -6.19069e-011 1.65092e-011
